<svg xmlns="http://www.w3.org/2000/svg" preserveAspectRatio="none" width="210.269" height="46.196" viewBox="0 0 210.269 46.196"><g transform="translate(159.094 1.622)"><path d="M1880.046,92.641l2.944.289,8.121-4.689-4.579-7.942-7.831,5.024Z" transform="translate(-1862.224 -74.437)" fill="#d6171a"></path><path d="M1706.671,161.685l10.962-6.339-1.018-5.546-14.214,9.135Z" transform="translate(-1702.4 -137.459)" fill="#d6171a"></path><path d="M1784.8,247.978h0l.654-10.561-3.159-.317-9.093,5.257,12.027,7.727Z" transform="translate(-1766.583 -216.621)" fill="#d6171a"></path><path d="M1935.121,327.309l-1.533-6.292L1924.2,318.5l-.2,3.113.85,4.157,7.579,4.866Z" transform="translate(-1903.291 -290.434)" fill="#d6171a"></path><path d="M1937.314,193.769l-.776-3.169-8.467,4.884L1927.8,200l8.981,2.414Z" transform="translate(-1906.736 -174.456)" fill="#d6171a"></path><path d="M1989.267,29.658l4.215-3.523-1.635-8.734h-.009l-7.037,4.512Z" transform="translate(-1958.409 -17.4)" fill="#d6171a"></path><path d="M2054.939,132.168l-5.14-6.068-5.3,4.428,1.1,4.53-.608,9.9,1.841,7.532,6.485-1.128,4.187-8.641Z" transform="translate(-2012.53 -115.968)" fill="#d6171a"></path><path d="M2045.933,424.7l-7.364,1.286-1.869,2.3,2.168,1.4h8.084Z" transform="translate(-2005.459 -386.734)" fill="#d6171a"></path><g transform="translate(35.97)"><path d="M2087.3,17.4l1.149,6.115,6.561,7.746L2102.5,27.6V17.4Z" transform="translate(-2087.3 -17.4)" fill="#d6171a"></path><path d="M2164.614,320.3,2160.4,329l1.234,6.022h7.14V322.043Z" transform="translate(-2153.568 -292.066)" fill="#d6171a"></path><path d="M2183.1,159.457l2.346,9.638,3.906,1.641V156.4Z" transform="translate(-2174.147 -143.443)" fill="#d6171a"></path></g></g><g><g transform="translate(0 1.622)"><path id="XMLID_4_" d="M32.269,34.738h.019a8.669,8.669,0,1,0,0-17.338H0L.009,34.747l32.26-.009Z" transform="translate(0 -17.4)" fill="#020203"></path><path id="XMLID_3_" d="M33.3,230H.2v23.135H33.31A11.568,11.568,0,1,0,33.3,230Z" transform="translate(-0.181 -210.183)" fill="#020203"></path></g><g transform="translate(46.371)"><path d="M757.7,0V46.187A23.124,23.124,0,0,0,757.7,0Z" transform="translate(-733.262)" fill="#020203"></path><path d="M518.152,0a23.128,23.128,0,0,0-.009,46.2V0Z" transform="translate(-496.2)" fill="#020203"></path></g><g transform="translate(96.06 1.622)"><path id="XMLID_2_" d="M1056.98,17.4H1028V47.126h28.98a14.863,14.863,0,1,0,0-29.726Z" transform="translate(-1027.99 -17.4)" fill="#020203"></path><path d="M1027.9,363v10.738h44.726L1057.861,363Z" transform="translate(-1027.9 -330.786)" fill="#020203"></path></g><g transform="translate(143.263 1.622)"><g><g><path id="XMLID_1_" d="M1577.67,17.4H1533V46.11Z" transform="translate(-1533 -17.4)" fill="#020203"></path><path d="M1546.551,263.6,1533,272.306v11.3h44.67Z" transform="translate(-1533 -240.651)" fill="#020203"></path></g></g></g></g></svg>